<?xml version="1.0" encoding="UTF-8"?>
<svg width="16px" height="15px" viewBox="0 0 16 15" version="1.1" xmlns="http://www.w3.org/2000/svg" xmlns:xlink="http://www.w3.org/1999/xlink">
    <!-- Generator: Sketch 64 (93537) - https://sketch.com -->
    <title>Uncheck Gray Copy 3</title>
    <desc>Created with Sketch.</desc>
    <g id="Page-1" stroke="none" stroke-width="1" fill="none" fill-rule="evenodd">
        <g id="HR-Recruit-add-to-do-list-form" transform="translate(-971.000000, -440.000000)" fill="#8C8582">
            <g id="Group-8" transform="translate(424.000000, 65.000000)">
                <g id="Group-3" transform="translate(24.000000, 94.000000)">
                    <g id="Group-9" transform="translate(0.000000, 268.000000)">
                        <g id="Group-4-Copy-9" transform="translate(139.000000, 0.000000)">
                            <g id="Component/icon/ic_Schedule" transform="translate(384.000000, 12.000000)">
                                <path d="M15.3333333,11.3333333 C15.3333333,13.5424723 13.5424723,15.3333333 11.3333333,15.3333333 L4.66666667,15.3333333 C2.45752767,15.3333333 0.666666667,13.5424723 0.666666667,11.3333333 L0.666666667,4.66666667 C0.666666667,3.56209717 1.56209717,2.66666667 2.66666667,2.66666667 L3.99966667,2.66633333 L4,2 C4,1.66528197 4.24667507,1.38817799 4.56815155,1.34056171 L4.66666667,1.33333333 C5.0013847,1.33333333 5.27848868,1.5800084 5.32610495,1.90148489 L5.33333333,2 L5.33266667,2.66633333 L11.3326667,2.66633333 L11.3333333,2 C11.3333333,1.66528197 11.5800084,1.38817799 11.9014849,1.34056171 L12,1.33333333 C12.334718,1.33333333 12.611822,1.5800084 12.6594383,1.90148489 L12.6666667,2 L12.6666667,2.66633333 L13.3333333,2.66666667 C14.4379028,2.66666667 15.3333333,3.56209717 15.3333333,4.66666667 L15.3333333,11.3333333 Z M14,8 L2,8 L2,11.3333333 C2,12.8060927 3.19390733,14 4.66666667,14 L11.3333333,14 C12.8060927,14 14,12.8060927 14,11.3333333 L14,8 Z M4,4 L2.66666667,4 C2.29847683,4 2,4.29847683 2,4.66666667 L2,6.66666667 L14,6.66666667 L14,4.66666667 C14,4.29847683 13.7015232,4 13.3333333,4 L12.6666667,4 C12.6666667,4.36818983 12.3681898,4.66666667 12,4.66666667 C11.6318102,4.66666667 11.3333333,4.36818983 11.3333333,4 L5.33333333,4 C5.33333333,4.36818983 5.0348565,4.66666667 4.66666667,4.66666667 C4.33194864,4.66666667 4.05484466,4.4199916 4.00722838,4.09851511 L4,4 Z" id="Combined-Shape"></path>
                            </g>
                        </g>
                    </g>
                </g>
            </g>
        </g>
    </g>
</svg>