<?xml version="1.0" encoding="UTF-8"?>
<svg width="14px" height="12px" viewBox="0 0 14 12" version="1.1" xmlns="http://www.w3.org/2000/svg" xmlns:xlink="http://www.w3.org/1999/xlink">
    <title>Combined Shape</title>
    <g id="Symbols" stroke="none" stroke-width="1" fill="none" fill-rule="evenodd">
        <g id="Password" transform="translate(-240.000000, -13.000000)" fill="#8C8582">
            <path d="M240.406658,18.6249954 C241.636159,15.6054541 244.172817,13.6666667 247,13.6666667 C249.827183,13.6666667 252.363841,15.6054541 253.593342,18.6249954 C253.691108,18.8650993 253.691108,19.1349007 253.593342,19.3750046 C252.363841,22.3945459 249.827183,24.3333333 247,24.3333333 C244.172817,24.3333333 241.636159,22.3945459 240.406658,19.3750046 C240.308892,19.1349007 240.308892,18.8650993 240.406658,18.6249954 Z M247,23.0997732 C249.279366,23.0997732 251.369165,21.5245012 252.433274,19 C251.369165,16.4754988 249.279366,14.9002268 247,14.9002268 C244.720634,14.9002268 242.630835,16.4754988 241.566726,19 C242.630835,21.5245012 244.720634,23.0997732 247,23.0997732 Z M247,21.430839 C245.680817,21.430839 244.611408,20.3425153 244.611408,19 C244.611408,17.6574847 245.680817,16.569161 247,16.569161 C248.319183,16.569161 249.388592,17.6574847 249.388592,19 C249.388592,20.3425153 248.319183,21.430839 247,21.430839 Z M247,20.1972789 C247.649747,20.1972789 248.176471,19.6612389 248.176471,19 C248.176471,18.3387611 247.649747,17.8027211 247,17.8027211 C246.350253,17.8027211 245.823529,18.3387611 245.823529,19 C245.823529,19.6612389 246.350253,20.1972789 247,20.1972789 Z" id="Combined-Shape"></path>
        </g>
    </g>
</svg>