<?xml version="1.0" encoding="UTF-8"?>
<svg width="134px" height="32px" viewBox="0 0 134 32" version="1.1" xmlns="http://www.w3.org/2000/svg" xmlns:xlink="http://www.w3.org/1999/xlink">
    <title>logo</title>
    <defs>
        <linearGradient x1="23.5347755%" y1="46.7569697%" x2="96.617722%" y2="53.2350233%" id="linearGradient-1">
            <stop stop-color="#F083A6" offset="0%"></stop>
            <stop stop-color="#F5B0B3" offset="100%"></stop>
        </linearGradient>
    </defs>
    <g id="Page-1" stroke="none" stroke-width="1" fill="none" fill-rule="evenodd">
        <g id="HR-Recruit-get-task-complete-Copy-5" transform="translate(-24.000000, -24.000000)">
            <g id="Group-2" transform="translate(24.000000, 24.000000)">
                <g id="Group">
                    <g id="shield-(1)" fill="#F083A6" fill-rule="nonzero">
                        <path d="M2.8354595,24.1156503 C3.24474032,26.2926527 4.69873003,28.1154488 6.72949281,28.9996628 L11.8441996,31.5393363 C11.8670098,31.5507308 11.8894942,31.5604975 11.9123044,31.5705898 C12.5803185,31.8567547 13.2978634,32 14.0150824,32 C14.7326273,32 15.4498463,31.8574059 16.1178603,31.5705898 C16.1406706,31.5604975 16.1634808,31.5500797 16.1859652,31.5393363 L21.3006719,28.9996628 C23.3314347,28.1154488 24.786402,26.2926527 25.2008966,24.0843968 L27.9837455,7.01932761 C28.1219104,6.28324229 27.9417095,5.51753122 27.4890892,4.91948225 C27.0367948,4.32208436 26.3485774,3.94020552 25.6144136,3.87346618 L21.8533314,3.4941918 C20.9044255,3.40824464 20.0001627,3.12924195 19.2092991,2.69136723 L15.310378,0.334331469 C14.4983336,-0.115588935 13.5292243,-0.115588935 12.6751439,0.359724907 L8.86257577,2.66662487 C7.91138887,3.19467897 7.43954283,3.41670918 6.59556412,3.4941918 L2.42780797,3.87216404 C1.68028397,3.94020552 0.993044057,4.32208436 0.539772129,4.91948225 C0.0913880477,5.51297346 -0.0894645643,6.27054553 0.041857248,7.00109639 L2.8354595,24.1156503 Z M6.83898195,6.14911263 C8.22160809,6.02377304 9.08807125,5.59240939 10.2038177,4.97222251 L14.0157341,2.66597371 L17.8713159,4.99696488 C19.0317052,5.64156858 20.2905044,6.02898196 21.5991603,6.1478104 L25.3543769,6.55833829 L22.5715281,23.623733 C22.3245258,24.9380083 21.4427472,26.0374157 20.2129496,26.5641677 C20.1901393,26.5739344 20.1676549,26.5846778 20.1448447,26.5954212 L15.0356775,29.1321647 C14.3849341,29.4010751 13.6455566,29.4010751 12.9948131,29.1321647 L7.88532003,26.5954212 C7.86283568,26.5840267 7.84002548,26.5739344 7.8172152,26.5641677 C6.58741754,26.0374157 5.70498732,24.9386595 5.46417638,23.6556377 L2.67611373,6.55898945 C2.67383268,6.54857161 2.67252924,6.53847931 2.67057412,6.52773594 L6.83898195,6.14911263 Z" id="Shape"></path>
                    </g>
                    <g id="Group-15" transform="translate(9.263158, 8.421053)">
                        <g id="Group-17" transform="translate(0.000000, 6.595105)">
                            <polygon id="Clip-16" points="0 0.156250009 0 9.28388701 10.429432 9.28388701 10.429432 0.156250009"></polygon>
                            <path d="M6.20269406,0.156250009 L4.00360838,2.29153756 C4.10476472,2.33341101 4.20618727,2.37554294 4.30760981,2.41534857 C6.21254349,3.16364266 7.18737121,3.93390738 7.18737121,5.05699471 C7.18737121,6.00354149 6.303318,6.75183558 5.12378179,6.75183558 C3.65035978,6.75183558 2.63001171,6.06945341 1.70070435,5.38732971 C1.49626205,5.23327677 1.11106934,5.23327677 0.929520322,5.54138266 L0.113614547,6.90588853 C-0.0905615481,7.25871113 0.000212960725,7.39027648 0.227016132,7.56655854 C0.884266168,8.11711689 2.35822058,9.28388701 5.2148225,9.28388701 C8.41162918,9.28388701 10.429432,7.19254074 10.429432,4.9249124 C10.429432,2.30316907 8.26548488,1.01439729 6.20269406,0.156250009" id="Fill-15" fill="#F5B0B3"></path>
                        </g>
                        <g id="Group-20">
                            <polygon id="Clip-19" points="9.85159045 0.153277511 0.0450689342 0.153277511 0.0450689342 9.01998087 9.85159045 9.01998087 9.85159045 0.153277511"></polygon>
                            <path d="M4.00250267,9.01998087 L6.18974941,6.8849518 C6.01233351,6.81051011 5.83544721,6.73813624 5.66094411,6.66963955 C3.83408996,5.9433161 2.99970564,5.23870481 2.99970564,4.20453395 C2.99970564,3.36758187 3.69904204,2.66297058 4.9846453,2.66297058 C6.22470299,2.66297058 7.14964886,3.2799578 8.11934591,3.87419894 C8.38970655,4.05022252 8.72838556,3.87419894 8.90871425,3.60951737 L9.76560656,2.35486469 C9.92342727,2.13464136 9.85563851,1.76062355 9.63055864,1.62879972 C9.1790749,1.29846471 7.41974471,0.153148272 5.11969323,0.153148272 C1.53403848,0.153148272 0.0450689342,2.42077661 0.0450689342,4.38004057 C0.0450689342,6.86220573 1.98128542,8.17760076 4.00250267,9.01998087" id="Fill-18" fill="#F083A6"></path>
                        </g>
                    </g>
                </g>
                <path d="M45.3936842,24.9010526 C47.3894737,24.9010526 48.9978947,24.3663158 50.2189474,23.2968421 C51.44,22.2273684 52.0505263,20.9431579 52.0505263,19.4442105 C52.0505263,18.5852632 51.8905263,17.8484211 51.5705263,17.2336842 C51.2505263,16.6189474 50.8336842,16.1431579 50.32,15.8063158 C49.8063158,15.4694737 49.2378947,15.1873684 48.6147368,14.96 C47.9915789,14.7326316 47.3642105,14.5389474 46.7326316,14.3789474 C46.1010526,14.2189474 45.5284211,14.0505263 45.0147368,13.8736842 C44.5010526,13.6968421 44.0842105,13.4442105 43.7642105,13.1157895 C43.4442105,12.7873684 43.2842105,12.3536842 43.2842105,11.8147368 C43.2842105,11.2757895 43.4568421,10.8631579 43.8021053,10.5768421 C44.1473684,10.2905263 44.5894737,10.1473684 45.1284211,10.1473684 C45.6673684,10.1473684 46.1094737,10.32 46.4547368,10.6652632 C46.8,11.0105263 47.0063158,11.5031579 47.0736842,12.1431579 L47.0736842,12.1431579 L51.7726316,12.1431579 C51.7221053,10.2736842 51.1073684,8.90526316 49.9284211,8.03789474 C48.7494737,7.17052632 47.2042105,6.73684211 45.2926316,6.73684211 C43.3810526,6.73684211 41.8105263,7.23368421 40.5810526,8.22736842 C39.3515789,9.22105263 38.7368421,10.5431579 38.7368421,12.1936842 C38.7368421,13.0357895 38.8968421,13.7642105 39.2168421,14.3789474 C39.5368421,14.9936842 39.9536842,15.4652632 40.4673684,15.7936842 C40.9810526,16.1221053 41.5494737,16.4042105 42.1726316,16.64 C42.7957895,16.8757895 43.4231579,17.0736842 44.0547368,17.2336842 C44.6863158,17.3936842 45.2589474,17.5663158 45.7726316,17.7515789 C46.2863158,17.9368421 46.7031579,18.1894737 47.0231579,18.5094737 C47.3431579,18.8294737 47.5031579,19.2421053 47.5031579,19.7473684 C47.5031579,20.2526316 47.3263158,20.6694737 46.9726316,20.9978947 C46.6189474,21.3263158 46.1305263,21.4905263 45.5073684,21.4905263 C44.1768421,21.4905263 43.4526316,20.7831579 43.3347368,19.3684211 L43.3347368,19.3684211 L38.7368421,19.3684211 C38.7368421,21.1368421 39.3473684,22.5010526 40.5684211,23.4610526 C41.7894737,24.4210526 43.3978947,24.9010526 45.3936842,24.9010526 Z M61.4652632,24.7242105 L61.4652632,17.3726316 L68.3115789,17.3726316 L68.3115789,24.7242105 L72.6315789,24.7242105 L72.6315789,6.98947368 L68.3115789,6.98947368 L68.3115789,14.0884211 L61.4652632,14.0884211 L61.4652632,6.98947368 L57.1452632,6.98947368 L57.1452632,24.7242105 L61.4652632,24.7242105 Z M82.4252632,24.7242105 L82.4252632,6.98947368 L78.1052632,6.98947368 L78.1052632,24.7242105 L82.4252632,24.7242105 Z M98.6357895,24.7242105 L98.6357895,21.44 L92.2189474,21.44 L92.2189474,17.3221053 L97.8778947,17.3221053 L97.8778947,14.0378947 L92.2189474,14.0378947 L92.2189474,10.2231579 L98.6357895,10.2231579 L98.6357895,6.93894737 L87.8989474,6.93894737 L87.8989474,24.7242105 L98.6357895,24.7242105 Z M113.734737,24.7242105 L113.734737,21.44 L108.353684,21.44 L108.353684,6.98947368 L104.033684,6.98947368 L104.033684,24.7242105 L113.734737,24.7242105 Z M124.058947,24.7242105 C126.888421,24.7242105 129.212632,23.8989474 131.031579,22.2484211 C132.850526,20.5978947 133.76,18.4631579 133.76,15.8442105 C133.76,13.2252632 132.850526,11.0947368 131.031579,9.45263158 C129.212632,7.81052632 126.888421,6.98947368 124.058947,6.98947368 L124.058947,6.98947368 L117.818947,6.98947368 L117.818947,24.7242105 L124.058947,24.7242105 Z M124.058947,21.44 L122.138947,21.44 L122.138947,10.2736842 L124.058947,10.2736842 C125.709474,10.2736842 127.006316,10.7789474 127.949474,11.7894737 C128.892632,12.8 129.364211,14.1557895 129.364211,15.8568421 C129.364211,17.5578947 128.892632,18.9136842 127.949474,19.9242105 C127.006316,20.9347368 125.709474,21.44 124.058947,21.44 L124.058947,21.44 Z" id="SHIELD" fill="url(#linearGradient-1)" fill-rule="nonzero"></path>
            </g>
        </g>
    </g>
</svg>