<?xml version="1.0" encoding="UTF-8"?>
<svg width="110px" height="110px" viewBox="0 0 110 110" version="1.1" xmlns="http://www.w3.org/2000/svg" xmlns:xlink="http://www.w3.org/1999/xlink">
    <title>Group 8</title>
    <defs>
        <circle id="path-1" cx="55" cy="55" r="55"></circle>
    </defs>
    <g id="MVP0" stroke="none" stroke-width="1" fill="none" fill-rule="evenodd">
        <g id="Group-8">
            <mask id="mask-2" fill="white">
                <use xlink:href="#path-1"></use>
            </mask>
            <use id="Oval" fill="#F8F8F8" xlink:href="#path-1"></use>
            <g id="user" mask="url(#mask-2)">
                <g transform="translate(23.000000, 34.000000)">
                    <path d="M63.949268,70.4902128 C62.0046697,56.9148936 57.3119201,43.4889362 46.9942993,37 C42.7354683,40.4685106 37.5123737,42.3438298 32,42.3438298 C26.4876263,42.3438298 21.2645317,40.4685106 17.0057007,37 C6.70415096,43.4889362 2.01140133,56.9148936 0.0507319667,70.4902128 C-0.367115603,73.3944681 1.85069073,76 4.69526842,76 L59.3047316,76 C62.1493093,76 64.3671156,73.3944681 63.949268,70.4902128 Z" id="XMLID_1550_" fill="#E5E5E5" fill-rule="nonzero"></path>
                    <g id="XMLID_1709_" stroke-width="1" fill="none" fill-rule="evenodd" transform="translate(14.000000, 0.000000)">
                        <path d="M18.5,0 C8.29364407,0 0,8.72542373 0,19.5 C0,30.2745763 8.2779661,39 18.5,39 C28.7220339,39 37,30.2745763 37,19.5 C37,8.72542373 28.7063559,0 18.5,0 Z M18.5,13.1377119 C15.1762712,13.1377119 12.479661,15.9800847 12.479661,19.4834746 C12.479661,21.0864407 11.2411017,22.3919492 9.72033898,22.3919492 C8.19957627,22.3919492 6.96101695,21.0864407 6.96101695,19.4834746 C6.96101695,12.7741525 12.1347458,7.32076271 18.5,7.32076271 C20.0207627,7.32076271 21.259322,8.62627119 21.259322,10.2292373 C21.259322,11.8322034 20.0207627,13.1377119 18.5,13.1377119 Z" id="Shape" fill="#E5E5E5" fill-rule="nonzero"></path>
                    </g>
                </g>
            </g>
        </g>
    </g>
</svg>